<svg width="100%" height="100%" viewBox="0 0 1024 1024" xmlns="http://www.w3.org/2000/svg" style="fill-rule:evenodd;clip-rule:evenodd;stroke-linejoin:round;stroke-miterlimit:2;">
    <g transform="matrix(2.334498,0,0,2.334498,-673.638579,-683.797019)">
        <path d="M445.719,556.423C434.918,525.93 394.053,408.072 393.886,407.428C393.237,404.934 395.184,405.708 458.62,382.888C461.431,381.876 461.915,385.927 468.044,403.665C507.505,517.884 507.796,517.666 511.056,527.646C512.452,531.921 510.98,531.961 501.729,559.577C494.996,579.679 485.641,606.341 484.217,610.399C482.621,614.949 478.602,613.917 468.493,613.701C465.431,613.636 465.22,612.383 458.338,592.556C452.042,574.416 452.008,574.522 445.719,556.423Z" fill="currentColor"/>
        <path d="M596.893,399.618C601.501,386.107 601.378,383.104 606.506,383.124C636.506,383.241 636.987,382.988 637.53,383.462C639.122,384.85 637.743,385.356 572.695,574.567C559.418,613.187 559.116,613.496 557.536,613.757C557.248,613.805 524.596,613.819 524.402,613.765C522.139,613.128 523.627,611.95 532.768,585.591C545.1,550.032 595.675,403.32 596.893,399.618Z" fill="currentColor"/>
        <path d="M377.885,359.464C377.886,356.577 377.891,336.683 398.64,329.936C404.738,327.953 429.382,315.006 444.023,335.831C447.379,340.604 456.64,367.964 455.652,369.645C455.475,369.945 390.629,392.956 389.44,392.737C388.149,392.499 378.802,365.972 377.885,359.464Z" fill="currentColor"/>
        <path d="M509.598,658.842C512.095,658.334 512.059,657.973 513.525,658.397C520.185,660.322 529.147,663.077 530.503,663.494C532.647,664.153 531.428,666.183 531.304,666.389C525.647,675.804 514.075,699.304 512.383,700.101C510.752,700.87 511.219,699.594 509.069,695.74C492.431,665.919 490.809,664.469 493.51,663.522C501.472,660.728 501.568,661.266 509.598,658.842Z" fill="currentColor"/>
    </g>
</svg>
